<?xml version="1.0" encoding="utf-8"?>
<!-- Generator: Adobe Illustrator 16.0.0, SVG Export Plug-In . SVG Version: 6.00 Build 0)  -->
<!DOCTYPE svg PUBLIC "-//W3C//DTD SVG 1.1//EN" "http://www.w3.org/Graphics/SVG/1.1/DTD/svg11.dtd">
<svg version="1.1" id="Layer_1" xmlns="http://www.w3.org/2000/svg" xmlns:xlink="http://www.w3.org/1999/xlink" x="0px" y="0px"
	 width="1280px" height="800px" viewBox="0 0 1280 800" enable-background="new 0 0 1280 800" xml:space="preserve">
<g>
	<path fill="#444199" d="M3.111,295h127.5v22.8h-99.9v73.8h93.3v22.8h-93.3V505h-27.6V295z"/>
	<path fill="#444199" d="M167.807,295h27.6v187.2h101.4V505h-129V295z"/>
	<path fill="#444199" d="M438.404,459.7h-81.6l-14.1,45.3h-29.4l71.4-210h25.8l71.4,210h-29.4L438.404,459.7z M431.204,437.2
		l-33.6-107.7l-33.6,107.7H431.204z"/>
	<path fill="#444199" d="M517.002,295h27.6v210h-27.6V295z"/>
	<path fill="#444199" d="M598.899,295H663.4c22.799,0,39.797,4.65,51,13.95c11.197,9.3,16.799,23.353,16.799,42.15
		c0,14.001-3.5,25.852-10.5,35.55c-7.002,9.703-16.701,16.251-29.1,19.65v0.601c4.201,2.803,7.6,5.751,10.201,8.85
		c2.596,3.104,4.799,6.854,6.6,11.25l31.5,78h-29.701l-26.398-67.8c-3.404-8.799-7.5-14.7-12.301-17.7S659.199,415,649,415h-22.5v90
		h-27.6V295z M661.9,392.5c28.598,0,42.9-13.2,42.9-39.6c0-11.798-3.602-20.597-10.801-26.4c-7.199-5.798-18.201-8.7-33-8.7h-34.5
		v74.7H661.9z"/>
	<path fill="#444199" d="M773.197,295h66.602c27.398,0,48.047,8.503,61.949,25.5c13.898,17.001,20.85,42.103,20.85,75.3
		c0,26.002-3.104,46.95-9.299,62.851c-6.203,15.899-15.953,27.6-29.25,35.1c-13.305,7.5-30.854,11.25-52.65,11.25h-58.201V295z
		 M836.197,482.2c20.4,0,35.297-6.9,44.701-20.7c9.398-13.8,14.1-35.7,14.1-65.7c0-26.597-4.604-46.247-13.801-58.95
		c-9.201-12.699-23.398-19.05-42.6-19.05h-37.799v164.4H836.197z"/>
	<path fill="#444199" d="M960.094,295h126v22.8h-98.4v65.4h87.9V406h-87.9v76.2h98.4V505h-126V295z"/>
	<path fill="#444199" d="M1276.889,295l-71.699,210h-27l-71.701-210h29.4l55.801,173.4l55.799-173.4H1276.889z"/>
</g>
</svg>
